<svg xmlns="http://www.w3.org/2000/svg" width="32" height="32" viewBox="0 0 32 32">
  <defs>
    <style>
      .cls-1 {
        fill: #222;
      }
    </style>
  </defs>
  <path id="Icon_ionic-ios-paper" data-name="Icon ionic-ios-paper" class="cls-1" d="M9.221,5.837V30.606a1.08,1.08,0,0,1-1.077,1.077h0a1.08,1.08,0,0,1-1.077-1.077V8.3H5.837A2.459,2.459,0,0,0,3.375,10.76V32.913a2.459,2.459,0,0,0,2.462,2.462H33A2.378,2.378,0,0,0,35.375,33V5.837a2.459,2.459,0,0,0-2.462-2.462l-21.385.154A2.2,2.2,0,0,0,9.221,5.837ZM14.3,8.3H20.76a1.08,1.08,0,0,1,1.077,1.077h0a1.08,1.08,0,0,1-1.077,1.077H14.3a1.08,1.08,0,0,1-1.077-1.077h0A1.08,1.08,0,0,1,14.3,8.3Zm0,12.308H25.683a1.08,1.08,0,0,1,1.077,1.077h0a1.08,1.08,0,0,1-1.077,1.077H14.3a1.08,1.08,0,0,1-1.077-1.077h0A1.08,1.08,0,0,1,14.3,20.606Zm15.077,8.308H14.3a1.08,1.08,0,0,1-1.077-1.077h0A1.08,1.08,0,0,1,14.3,26.76H29.375a1.08,1.08,0,0,1,1.077,1.077h0A1.08,1.08,0,0,1,29.375,28.913Zm0-12.308H14.3a1.08,1.08,0,0,1-1.077-1.077h0A1.08,1.08,0,0,1,14.3,14.452H29.375a1.08,1.08,0,0,1,1.077,1.077h0A1.08,1.08,0,0,1,29.375,16.606Z" transform="translate(-3.375 -3.375)"/>
</svg>
