<svg xmlns="http://www.w3.org/2000/svg" width="38.018" height="32" viewBox="0 0 38.018 32">
  <defs>
    <style>
      .cls-1 {
        fill: #222;
      }
    </style>
  </defs>
  <path id="Icon_awesome-home" data-name="Icon awesome-home" class="cls-1" d="M18.5,10.555,6.336,21.4V33.111a1.1,1.1,0,0,0,1.056,1.143l7.4-.021a1.1,1.1,0,0,0,1.051-1.143V26.253a1.1,1.1,0,0,1,1.056-1.143h4.224a1.1,1.1,0,0,1,1.056,1.143v6.832a1.193,1.193,0,0,0,.308.811,1.017,1.017,0,0,0,.748.336l7.393.022a1.1,1.1,0,0,0,1.056-1.143V21.395L19.514,10.555A.757.757,0,0,0,18.5,10.555Zm19.221,7.373-5.517-4.923V3.111a.827.827,0,0,0-.792-.857h-3.7a.827.827,0,0,0-.792.857V8.3L21.018,3.036a2.984,2.984,0,0,0-4.026,0L.286,17.928a.906.906,0,0,0-.106,1.207L1.864,21.35a.776.776,0,0,0,.536.309.752.752,0,0,0,.58-.192L18.5,7.626a.757.757,0,0,1,1.01,0l15.525,13.84a.751.751,0,0,0,1.115-.114l1.683-2.215a.906.906,0,0,0,.176-.63.879.879,0,0,0-.288-.579Z" transform="translate(0.001 -2.254)"/>
</svg>
