<svg xmlns="http://www.w3.org/2000/svg" width="47.993" height="24" viewBox="0 0 47.993 24">
  <defs>
    <style>
      .cls-1 {
        fill: #222;
      }
    </style>
  </defs>
  <path id="Icon_awesome-gamepad" data-name="Icon awesome-gamepad" class="cls-1" d="M36,6.75H12a12,12,0,1,0,8.565,20.4h6.863A12,12,0,1,0,36,6.75ZM19.2,20.25a.9.9,0,0,1-.9.9H14.4v3.9a.9.9,0,0,1-.9.9h-3a.9.9,0,0,1-.9-.9v-3.9H5.7a.9.9,0,0,1-.9-.9v-3a.9.9,0,0,1,.9-.9H9.6v-3.9a.9.9,0,0,1,.9-.9h3a.9.9,0,0,1,.9.9v3.9h3.9a.9.9,0,0,1,.9.9ZM33,25.35a3.6,3.6,0,1,1,3.6-3.6A3.6,3.6,0,0,1,33,25.35Zm6-6a3.6,3.6,0,1,1,3.6-3.6A3.6,3.6,0,0,1,39,19.35Z" transform="translate(0 -6.75)"/>
</svg>
