<svg xmlns="http://www.w3.org/2000/svg" width="21.741" height="32" viewBox="0 0 21.741 32">
  <defs>
    <style>
      .cls-1 {
        fill: #222;
      }
    </style>
  </defs>
  <path id="Icon_awesome-question" data-name="Icon awesome-question" class="cls-1" d="M12.7,0A11.935,11.935,0,0,0,2.066,5.689a1.513,1.513,0,0,0,.32,2.055L5.051,9.788a1.471,1.471,0,0,0,2.054-.259c1.548-1.961,2.7-3.091,5.113-3.091,1.9,0,4.251,1.237,4.251,3.1,0,1.41-1.15,2.133-3.027,3.2-2.188,1.241-5.084,2.786-5.084,6.65V20a1.491,1.491,0,0,0,1.483,1.5h4.477A1.491,1.491,0,0,0,15.8,20v-.361c0-2.679,7.739-2.79,7.739-10.039C23.541,4.141,17.943,0,12.7,0ZM12.08,23.341a4.33,4.33,0,1,0,4.28,4.329A4.31,4.31,0,0,0,12.08,23.341Z" transform="translate(-1.8)"/>
</svg>
