<svg xmlns="http://www.w3.org/2000/svg" width="22" height="32" viewBox="0 0 22 32">
  <defs>
    <style>
      .cls-1 {
        fill: #222;
      }
    </style>
  </defs>
  <path id="Icon_awesome-lightbulb" data-name="Icon awesome-lightbulb" class="cls-1" d="M6,28.4A2,2,0,0,0,6.339,29.5l1.068,1.606A2,2,0,0,0,9.072,32h3.857a2,2,0,0,0,1.665-.892L15.662,29.5A2,2,0,0,0,16,28.4L16,26H6l0,2.4ZM0,11a10.938,10.938,0,0,0,2.722,7.236,17.961,17.961,0,0,1,3.263,5.716c0,.016,0,.032.007.049H16.007c0-.016,0-.032.007-.049a17.961,17.961,0,0,1,3.263-5.716A11,11,0,1,0,0,11ZM11,6a5.006,5.006,0,0,0-5,5,1,1,0,0,1-2,0,7.008,7.008,0,0,1,7-7,1,1,0,0,1,0,2Z" transform="translate(0 0)"/>
</svg>
