<svg id="anhoeren" xmlns="http://www.w3.org/2000/svg" width="30" height="29.992" viewBox="0 0 30 29.992">
  <defs>
    <style>
      .cls-1 {
        fill: #4ba6e1;
      }
    </style>
  </defs>
  <path id="Pfad_193" data-name="Pfad 193" class="cls-1" d="M16.4,0A10.974,10.974,0,0,0,8.3,3.3,10.891,10.891,0,0,0,5,11.1H8a8.194,8.194,0,0,1,2.4-5.7A8.279,8.279,0,0,1,16.247,3h.15a8.167,8.167,0,0,1,8.1,7.5,8.192,8.192,0,0,1-3.6,7.2,6.3,6.3,0,0,0-2.849,5.848,3.406,3.406,0,0,1-.9,2.4,3.221,3.221,0,0,1-3.749.75,3.808,3.808,0,0,1-1.949-2.1,2.908,2.908,0,0,1,.45-2.7l-2.549-1.65a5.906,5.906,0,0,0-.75,5.249,6.878,6.878,0,0,0,3.6,4.049,6.792,6.792,0,0,0,2.4.45,6.579,6.579,0,0,0,4.649-1.949,6.164,6.164,0,0,0,1.65-4.649,2.923,2.923,0,0,1,1.5-3,11.35,11.35,0,0,0,5.1-9.9A11.5,11.5,0,0,0,16.4,0Z" transform="translate(2.498)"/>
  <path id="Pfad_194" data-name="Pfad 194" class="cls-1" d="M11.1,17.064l2.849,1.05a10.832,10.832,0,0,1,3.749-4.8,5.315,5.315,0,0,0-2.1-9.148,5.174,5.174,0,0,0-4.649.9A5.579,5.579,0,0,0,9,9.266h3a2.138,2.138,0,0,1,.9-1.8,2.274,2.274,0,0,1,1.949-.45,1.926,1.926,0,0,1,1.5,1.5,2.135,2.135,0,0,1-.75,2.4A17.073,17.073,0,0,0,11.1,17.064Z" transform="translate(4.496 1.981)"/>
  <path id="Pfad_195" data-name="Pfad 195" class="cls-1" d="M13.5,11.349H11.1l-1.8-1.8L6.6,10.9,4.949,7.3.9,11.349H0v3H2.1L4.049,12.4,5.4,14.948l3.3-1.8,1.2,1.2h3.6Z" transform="translate(0 3.647)"/>
</svg>
