<svg xmlns="http://www.w3.org/2000/svg" xmlns:xlink="http://www.w3.org/1999/xlink" width="65" height="57.645" viewBox="0 0 65 57.645">
  <defs>
    <style>
      .cls-1 {
        fill: #2a2d2f;
      }

      .cls-2 {
        filter: url(#Icon_FAQ);
      }
    </style>
    <filter id="Icon_FAQ" x="0" y="0" width="65" height="57.645" filterUnits="userSpaceOnUse">
      <feOffset dy="-3" input="SourceAlpha"/>
      <feGaussianBlur stdDeviation="4.5" result="blur"/>
      <feFlood flood-color="#6b7075" flood-opacity="0.251"/>
      <feComposite operator="in" in2="blur"/>
      <feComposite in="SourceGraphic"/>
    </filter>
  </defs>
  <g class="cls-2" transform="matrix(1, 0, 0, 1, 0, 0)">
    <path id="Icon_FAQ-2" data-name="Icon FAQ" class="cls-1" d="M20.607,7.012C20.4,7,20.2,7,20,7,9.525,7,1,13.871,1,22.323a13.16,13.16,0,0,0,3.1,8.385l-1.25,6.2a.611.611,0,0,0,.184.57.6.6,0,0,0,.417.165.58.58,0,0,0,.172-.025l6.963-2A22.539,22.539,0,0,0,20,37.645c8.673,0,16.23-4.713,18.393-11.467A12.6,12.6,0,0,0,39,22.323C39,13.987,30.916,7.257,20.607,7.012ZM24.493,18.5A3.418,3.418,0,0,1,24,20.355a6.863,6.863,0,0,1-1.851,1.753,5.633,5.633,0,0,0-1.183,1.054,1.622,1.622,0,0,0-.245.944v.582H18.137v-.717a3.17,3.17,0,0,1,.4-1.63A5.26,5.26,0,0,1,20,20.87a5.966,5.966,0,0,0,1.348-1.189,1.7,1.7,0,0,0,.325-1.024,1.107,1.107,0,0,0-.466-.962,2.235,2.235,0,0,0-1.305-.331,7.463,7.463,0,0,0-3.328.956l-1.066-2.133a9.263,9.263,0,0,1,4.609-1.22,4.912,4.912,0,0,1,3.193.962A3.166,3.166,0,0,1,24.493,18.5ZM18.278,29.242a1.606,1.606,0,0,1-.447-1.22,1.631,1.631,0,0,1,.435-1.238,1.766,1.766,0,0,1,1.275-.417A1.736,1.736,0,0,1,20.8,26.8a1.622,1.622,0,0,1,.441,1.226,1.653,1.653,0,0,1-.447,1.214,1.71,1.71,0,0,1-1.25.441,1.735,1.735,0,0,1-1.263-.435Z" transform="translate(12.5 9.5)"/>
  </g>
</svg>
