<svg xmlns="http://www.w3.org/2000/svg" xmlns:xlink="http://www.w3.org/1999/xlink" width="84" height="62.019" viewBox="0 0 84 62.019">
  <defs>
    <style>
      .cls-1 {
        fill: #2a2d2f;
        opacity: 0.5;
      }

      .cls-2 {
        filter: url(#Icon_ionic-ios-arrow-round-back);
      }
    </style>
    <filter id="Icon_ionic-ios-arrow-round-back" x="0" y="0" width="84" height="62.019" filterUnits="userSpaceOnUse">
      <feOffset dy="3" input="SourceAlpha"/>
      <feGaussianBlur stdDeviation="3" result="blur"/>
      <feFlood flood-color="#131314" flood-opacity="0.251"/>
      <feComposite operator="in" in2="blur"/>
      <feComposite in="SourceGraphic"/>
    </filter>
  </defs>
  <g class="cls-2" transform="matrix(1, 0, 0, 1, 0, 0)">
    <path id="Icon_ionic-ios-arrow-round-back-2" data-name="Icon ionic-ios-arrow-round-back" class="cls-1" d="M49.972,12.094a3,3,0,0,0-.023,4.218L63.864,30.274H10.839a2.98,2.98,0,0,0,0,5.96H63.864L49.926,50.2a3.017,3.017,0,0,0,.023,4.218,2.968,2.968,0,0,0,4.2-.023l18.89-19.028h0a3.346,3.346,0,0,0,.619-.94,2.844,2.844,0,0,0,.229-1.146,2.988,2.988,0,0,0-.848-2.086L54.144,12.163A2.92,2.92,0,0,0,49.972,12.094Z" transform="translate(1.12 -5.25)"/>
  </g>
</svg>
