<svg xmlns="http://www.w3.org/2000/svg"  viewBox="0 0 32 36.417">
  <defs>
    <style>
      .cls-1 {
        fill: #f2f9fd;
      }
    </style>
  </defs>
  <path id="Icon_tips" data-name="Icon tips" class="cls-1" d="M35.241,960.158a.828.828,0,0,0-1.132.3l-1.657,2.869a.828.828,0,1,0,1.435.828l1.657-2.869A.828.828,0,0,0,35.241,960.158ZM22.67,958.5a.828.828,0,0,0-1.21.931l.857,3.2a.824.824,0,1,0,1.591-.426l-.857-3.2A.821.821,0,0,0,22.67,958.5Zm20.288,11.713a.821.821,0,0,0-.627-.078l-3.2.858a.824.824,0,1,0,.426,1.591l3.2-.857a.828.828,0,0,0,.2-1.513Zm-11.444-3.6c-4.374-2.525-10.567-1.576-13.339,3.224-3.391,5.873-.108,9.76-1.834,13.841l7.981,4.608c2.671-3.535,7.679-2.635,11.07-8.509,2.771-4.8.5-10.638-3.878-13.163Zm-1.857,1.379a.819.819,0,0,1,.457,1.175.861.861,0,0,1-1.122.339,6.225,6.225,0,0,0-8.505,4.325.828.828,0,1,1-1.607-.375,7.856,7.856,0,0,1,10.777-5.465ZM12.61,966.222a.828.828,0,1,0-.828,1.435l2.869,1.657a.828.828,0,0,0,.828-1.435Zm25.825,14.91a.828.828,0,0,0-.828,1.435l2.869,1.657a.828.828,0,0,0,.828-1.435ZM15.557,985.14l-.828,1.435,7.891,4.556.828-1.435-7.891-4.556Zm-1.657,2.87-.414.717a1.659,1.659,0,0,0,.606,2.263l5.021,2.9a1.659,1.659,0,0,0,2.263-.606l.414-.717L13.9,988.009Zm.854,4.319a1.657,1.657,0,0,0,2.869,1.657Z" transform="translate(-11.368 -958.397)"/>
</svg>
