<svg xmlns="http://www.w3.org/2000/svg" xmlns:xlink="http://www.w3.org/1999/xlink" width="84" height="62.019" viewBox="0 0 84 62.019">
  <defs>
    <style>
      .cls-1 {
        fill: #2a2d2f;
      }

      .cls-2 {
        filter: url(#Icon_ionic-ios-arrow-round-back);
      }
    </style>
    <filter id="Icon_ionic-ios-arrow-round-back" x="0" y="0" width="84" height="62.019" filterUnits="userSpaceOnUse">
      <feOffset dy="3" input="SourceAlpha"/>
      <feGaussianBlur stdDeviation="3" result="blur"/>
      <feFlood flood-color="#131314" flood-opacity="0.251"/>
      <feComposite operator="in" in2="blur"/>
      <feComposite in="SourceGraphic"/>
    </filter>
  </defs>
  <g class="cls-2" transform="matrix(1, 0, 0, 1, 0, 0)">
    <path id="Icon_ionic-ios-arrow-round-back-2" data-name="Icon ionic-ios-arrow-round-back" class="cls-1" d="M31.792,12.094a3,3,0,0,1,.023,4.218L17.9,30.274H70.925a2.98,2.98,0,0,1,0,5.96H17.9L31.838,50.2a3.017,3.017,0,0,1-.023,4.218,2.968,2.968,0,0,1-4.2-.023L8.73,35.363h0a3.346,3.346,0,0,1-.619-.94,2.844,2.844,0,0,1-.229-1.146,2.988,2.988,0,0,1,.848-2.086L27.62,12.163A2.92,2.92,0,0,1,31.792,12.094Z" transform="translate(1.12 -5.25)"/>
  </g>
</svg>
